<svg width="24" height="24" viewBox="0 0 24 24" fill="none" xmlns="http://www.w3.org/2000/svg">
<path opacity="0.4" d="M13.2667 2H6.73333C4.35022 2 3 3.35022 3 5.73333V12.2667C3 14.6436 4.344 16 6.73333 16H13.2667C15.6498 16 17 14.6436 17 12.2667V5.73333C17 3.35022 15.6498 2 13.2667 2Z" fill="#2F7AEA"/>
<path d="M17.2667 7H10.7333C8.35022 7 7 8.35022 7 10.7333V17.2667C7 19.6436 8.344 21 10.7333 21H17.2667C19.6498 21 21 19.6436 21 17.2667V10.7333C21 8.35022 19.6498 7 17.2667 7Z" fill="#2F7AEA"/>
</svg>
