<svg width="284" height="122" viewBox="0 0 284 122" fill="none" xmlns="http://www.w3.org/2000/svg">
    <path fill-rule="evenodd" clip-rule="evenodd"
          d="M129.697 41.676L118.63 61.0922H130.049H130.05H141.469L130.402 41.676H129.697ZM137.651 41.676L144.772 54.1679L148.646 41.676H137.651ZM140.661 67.4215H130.05H130.049H119.437L130.049 101.639L140.661 67.4215ZM154.089 45.3429L149.205 61.0922H166.666L154.089 45.3429ZM147.242 67.4215H167.47L138.262 96.3783L147.242 67.4215ZM134.281 109.213L178.31 65.5641L154.18 35.3467H105.919L81.7886 65.5641L125.818 109.213L125.927 109.566L126.109 109.502L130.049 113.408L133.989 109.502L134.172 109.566L134.281 109.213ZM111.453 41.676L115.327 54.1679L122.447 41.676H111.453ZM112.857 67.4215L121.837 96.3787L92.6281 67.4215H112.857ZM93.4325 61.0922H110.894L106.009 45.3427L93.4325 61.0922Z"
          fill="#696DE4"/>
    <path fill-rule="evenodd" clip-rule="evenodd"
          d="M197.086 20.9929L181.036 36.4776L178.252 33.4846L194.301 17.9999L197.086 20.9929Z" fill="#696DE4"/>
    <path fill-rule="evenodd" clip-rule="evenodd"
          d="M55.9964 21.8059L71.9399 37.1886L74.724 34.1956L58.7806 18.8129L55.9964 21.8059Z" fill="#696DE4"/>
    <path fill-rule="evenodd" clip-rule="evenodd"
          d="M211.095 62.3593L188.988 62.2121L189.014 58.0894L211.122 58.2365L211.095 62.3593Z" fill="#696DE4"/>
    <path fill-rule="evenodd" clip-rule="evenodd"
          d="M41.6615 64.2499L63.6231 64.1037L63.5966 59.981L41.635 60.1271L41.6615 64.2499Z" fill="#696DE4"/>
    <path fill-rule="evenodd" clip-rule="evenodd"
          d="M178.913 113.728L166.677 94.9755L170.048 92.6936L182.284 111.446L178.913 113.728Z" fill="#696DE4"/>
    <path fill-rule="evenodd" clip-rule="evenodd"
          d="M74.8036 117L86.9588 98.3715L83.5872 96.0896L71.4319 114.718L74.8036 117Z" fill="#696DE4"/>
    <path fill-rule="evenodd" clip-rule="evenodd"
          d="M254.548 16.8179L243.05 24.4113L249.397 27.5906L249.397 27.5907L255.744 30.77L254.94 17.0142L254.548 16.8179ZM258.969 19.0325L259.486 27.8827L265.08 22.0935L258.969 19.0325ZM253.552 34.0249L247.654 31.0705L247.654 31.0703L241.756 28.1159L238.23 49.8826L253.552 34.0249ZM267.095 25.625L260.043 32.9238L269.748 37.7851L267.095 25.625ZM257.209 35.857L268.452 41.4888L244.243 49.2766L257.209 35.857ZM238.496 55.2246L274.988 43.4854L269.898 20.1544L243.075 6.71817L221.342 16.6129L233.792 52.8684L233.756 53.0926L233.875 53.1085L234.989 56.3529L238.255 55.3024L238.338 55.388L238.496 55.2246ZM244.408 11.7386L243.121 19.685L250.519 14.7996L244.408 11.7386ZM238.098 26.2838L235.115 44.7041L226.855 20.6519L238.098 26.2838ZM229.045 17.3962L238.75 22.2576L240.373 12.2389L229.045 17.3962Z"
          fill="#696DE4"/>
    <path fill-rule="evenodd" clip-rule="evenodd"
          d="M226.267 81.9094L222.756 92.4237L228.353 91.2865L228.353 91.2864L233.949 90.1492L226.613 81.8391L226.267 81.9094ZM230.166 81.1172L234.886 86.4637L235.554 80.0223L230.166 81.1172ZM234.177 93.2978L228.976 94.3546L228.976 94.3547L223.776 95.4114L232.347 110.942L234.177 93.2978ZM238.582 81.2578L237.74 89.3788L246.297 87.6399L238.582 81.2578ZM237.402 92.6425L247.315 90.628L235.853 107.574L237.402 92.6425ZM235.167 114.192L252.444 88.6482L237.642 76.403L213.991 81.2091L205.143 98.2603L231.019 115.035L231.108 115.195L231.191 115.146L233.506 116.647L235.052 114.361L235.148 114.374L235.167 114.192ZM217.327 83.7262L220.456 89.3959L222.715 82.6313L217.327 83.7262ZM220.551 96.0668L227.804 109.21L210.638 98.0813L220.551 96.0668ZM210.408 94.933L218.965 93.1941L215.02 86.0457L210.408 94.933Z"
          fill="#696DE4"/>
    <path fill-rule="evenodd" clip-rule="evenodd"
          d="M25.3991 27.644L19.1918 33.0536L23.203 34.433L23.2032 34.433L27.2144 35.8124L25.6468 27.7291L25.3991 27.644ZM28.1933 28.6048L29.2018 33.8053L32.0552 29.9328L28.1933 28.6048ZM26.1744 37.914L22.4469 36.6322L22.4468 36.6322L18.7192 35.3504L18.3585 48.5216L26.1744 37.914ZM33.5292 31.8644L29.9317 36.7467L36.0652 38.8558L33.5292 31.8644ZM28.486 38.7089L35.5915 41.1522L21.8717 47.6856L28.486 38.7089ZM18.9401 51.6643L39.621 41.8161L34.7553 28.402L17.803 22.5727L5.7165 30.1575L15.9671 50.6422L15.9634 50.7778L16.0349 50.7778L16.9522 52.6109L18.803 51.7296L18.8595 51.7737L18.9401 51.6643ZM18.9907 25.4403L18.859 30.2488L22.8527 26.7683L18.9907 25.4403ZM16.4077 34.5555L16.1024 45.7019L9.30208 32.1121L16.4077 34.5555ZM10.3409 30.0101L16.4744 32.1192L16.6405 26.0569L10.3409 30.0101Z"
          fill="#696DE4"/>
</svg>
