<svg width="60" height="48" viewBox="0 0 60 48" fill="none" xmlns="http://www.w3.org/2000/svg">
    <path fill-rule="evenodd" clip-rule="evenodd"
          d="M29.781 3.89189L22.9013 15.8309L29.9999 15.8309L30.0002 15.8309L37.0988 15.8309L30.2192 3.89189L29.781 3.89189ZM34.7256 3.89189L39.1518 11.5731L41.5601 3.89189L34.7256 3.89189ZM36.5967 19.7228L30.0002 19.7228L29.9999 19.7228L23.4034 19.7228L30.0001 40.7632L36.5967 19.7228ZM44.9438 6.14666L41.9076 15.8309L52.7618 15.8309L44.9438 6.14666ZM40.6874 19.7228L53.2619 19.7228L35.105 37.5283L40.6874 19.7228ZM32.6307 45.4202L60 18.5806L45 -1.31134e-06L15 -3.93402e-06L-1.62437e-06 18.5806L27.3695 45.4205L27.4375 45.6371L27.5508 45.5982L30 48L32.4493 45.5981L32.5627 45.6371L32.6307 45.4202ZM18.4401 3.89189L20.8483 11.5731L25.2745 3.89189L18.4401 3.89189ZM19.3127 19.7228L24.8952 37.5285L6.73807 19.7228L19.3127 19.7228ZM7.23815 15.8309L18.0925 15.8309L15.0563 6.14651L7.23815 15.8309Z"
          fill="white"/>
</svg>
