<svg width="24" height="24" viewBox="0 0 24 24" fill="none" xmlns="http://www.w3.org/2000/svg">
    <path fill-rule="evenodd" clip-rule="evenodd"
          d="M21 17.565C21 20.0141 18.9774 22 16.4834 22L11.5176 22C9.02277 22 7 20.0142 7 17.565L7 16.632C7 16.2178 7.34204 15.882 7.76397 15.882C8.1859 15.882 8.52794 16.2178 8.52794 16.632L8.52794 17.565C8.52794 19.1858 9.86663 20.5 11.5176 20.5L16.4834 20.5C18.1332 20.5 19.4721 19.1859 19.4721 17.565L19.4721 6.435C19.4721 4.81408 18.1332 3.5 16.4834 3.5L11.5074 3.5C9.86229 3.5 8.52794 4.80948 8.52794 6.424L8.52794 7.367C8.52794 7.78121 8.1859 8.117 7.76397 8.117C7.34204 8.117 7 7.78121 7 7.367L7 6.424C7 3.98052 9.01897 2 11.5074 2L16.4834 2C18.9774 2 21 3.98592 21 6.435L21 17.565Z"
          fill="white"/>
    <path fill-rule="evenodd" clip-rule="evenodd"
          d="M14.1023 11.8507C14.1023 12.259 13.7713 12.5901 13.3629 12.5901L1.49208 12.5901C1.08373 12.5901 0.752686 12.259 0.752686 11.8507C0.752685 11.4423 1.08373 11.1113 1.49208 11.1113L13.3629 11.1113C13.7713 11.1113 14.1023 11.4423 14.1023 11.8507Z"
          fill="white"/>
    <path fill-rule="evenodd" clip-rule="evenodd"
          d="M4.90313 15.2464C4.61502 15.5358 4.14686 15.5368 3.85746 15.2487L0.970846 12.3749C0.831485 12.2362 0.753133 12.0476 0.753116 11.851C0.753099 11.6543 0.831418 11.4658 0.970755 11.327L3.85737 8.45222C4.14672 8.16406 4.61488 8.16502 4.90304 8.45437C5.1912 8.74371 5.19024 9.21188 4.90089 9.50004L2.54043 11.8508L4.9008 14.2007C5.1902 14.4888 5.19124 14.957 4.90313 15.2464Z"
          fill="white"/>
</svg>
