<svg width="20" height="20" viewBox="0 0 20 20" fill="none" xmlns="http://www.w3.org/2000/svg">
    <path d="M10.7238 2.98254L12.392 6.51531C12.5149 6.77127 12.7494 6.94901 13.02 6.98851L16.767 7.56361C16.9858 7.596 17.1844 7.71766 17.3185 7.9033C17.4512 8.08658 17.5081 8.31883 17.4759 8.54713C17.4497 8.73673 17.365 8.9121 17.2353 9.0464L14.5203 11.82C14.3217 12.0135 14.2317 12.3003 14.2797 12.5808L14.9482 16.4801C15.0194 16.9509 14.7234 17.3949 14.2797 17.4841C14.0969 17.5149 13.9095 17.4826 13.7446 17.3941L10.4023 15.559C10.1543 15.427 9.86127 15.427 9.61322 15.559L6.27092 17.3941C5.86025 17.624 5.35141 17.4675 5.12284 17.041C5.03816 16.8711 5.00819 16.6776 5.03591 16.4888L5.70438 12.5887C5.75234 12.309 5.66166 12.0207 5.46382 11.8271L2.74876 9.05509C2.42577 8.72646 2.41603 8.18532 2.72703 7.84484C2.73377 7.83773 2.74126 7.82983 2.74876 7.82193C2.87765 7.68369 3.04702 7.596 3.22987 7.57309L6.97685 6.9972C7.24663 6.95691 7.48119 6.78075 7.60484 6.52321L9.21305 2.98254C9.35618 2.67919 9.65294 2.49039 9.97518 2.49829H10.0756C10.3551 2.53383 10.5987 2.71632 10.7238 2.98254Z"
          fill="#1B314F"/>
</svg>
